<?xml version="1.0" standalone="no"?>
<!DOCTYPE svg PUBLIC "-//W3C//DTD SVG 20010904//EN"
 "http://www.w3.org/TR/2001/REC-SVG-20010904/DTD/svg10.dtd">
<svg version="1.0" xmlns="http://www.w3.org/2000/svg"
 width="667.000000pt" height="375.000000pt" viewBox="0 0 667.000000 375.000000"
 preserveAspectRatio="xMidYMid meet">

<g transform="translate(0.000000,375.000000) scale(0.100000,-0.100000)"
fill="#000000" stroke="none">
<path d="M8 3743 c7 -3 16 -2 19 1 4 3 -2 6 -13 5 -11 0 -14 -3 -6 -6z"/>
<path d="M63 3743 c9 -2 25 -2 35 0 9 3 1 5 -18 5 -19 0 -27 -2 -17 -5z"/>
<path d="M157 3738 c-7 -24 12 -83 33 -100 25 -20 25 -30 -1 -54 -13 -12 -19
-27 -16 -41 2 -13 0 -26 -5 -29 -5 -3 -4 -12 3 -20 19 -23 5 -26 -36 -8 -31
12 -43 13 -66 3 -16 -6 -38 -9 -49 -6 -20 5 -20 0 -20 -219 0 -178 3 -224 13
-224 7 0 21 -6 31 -13 18 -13 18 -15 1 -40 -9 -15 -24 -27 -31 -27 -11 0 -14
-22 -14 -103 l0 -104 173 -6 c289 -11 374 -23 527 -74 161 -54 220 -81 227
-102 2 -9 9 -23 14 -31 5 -8 39 -65 76 -127 37 -61 69 -110 71 -109 5 6 -22
61 -68 136 -26 41 -50 81 -54 88 -4 6 -3 12 2 12 10 0 45 -50 138 -200 27 -43
28 -44 34 -20 5 20 12 25 35 25 25 0 31 -5 35 -30 l5 -30 16 23 c12 17 24 22
50 20 28 -2 33 0 31 15 -4 21 6 22 28 2 16 -14 19 -11 42 37 33 69 53 87 67
60 6 -11 8 -36 4 -56 -4 -25 -2 -36 7 -36 6 0 21 -10 32 -22 11 -13 17 -18 14
-12 -3 7 1 15 10 18 24 9 26 8 19 -16 -6 -18 -4 -20 11 -13 11 4 27 7 36 7 9
0 16 7 16 16 0 9 2 36 6 59 5 40 4 42 -24 48 -40 9 -58 42 -33 61 10 7 24 14
32 14 21 0 61 -48 68 -81 3 -16 12 -29 19 -29 8 0 14 -10 14 -25 0 -28 15 -30
102 -16 26 4 51 4 55 0 4 -4 35 -9 68 -11 72 -4 76 -22 5 -26 -45 -3 -50 -5
-50 -26 0 -33 26 -40 51 -13 15 15 20 17 16 6 -3 -11 2 -20 16 -27 61 -29 91
-16 85 35 l-3 28 70 -1 c39 -1 95 -3 125 -5 30 -2 93 -2 140 0 115 4 118 4 94
-13 -10 -8 -16 -18 -11 -22 4 -4 7 -2 7 4 0 6 22 18 50 27 27 9 52 21 55 26 7
11 100 2 126 -11 10 -6 22 -10 26 -9 4 1 20 1 35 0 21 -1 26 -5 21 -17 -5 -15
-3 -14 21 1 15 10 29 15 33 11 4 -3 17 1 31 10 16 11 32 13 50 8 29 -9 37 -10
123 -19 43 -5 59 -3 69 10 13 16 50 21 50 6 0 -16 93 -19 124 -3 20 10 31 11
39 3 6 -6 21 -11 33 -11 37 0 76 -19 68 -32 -9 -14 -9 -70 -1 -92 4 -9 14 -12
26 -9 21 5 29 23 11 23 -8 0 -8 23 -1 73 2 11 69 9 76 -3 9 -15 25 -12 25 5 0
9 10 15 26 15 14 0 37 9 51 20 24 19 28 19 44 4 9 -8 26 -15 36 -14 10 1 23 2
29 1 18 -2 12 -93 -7 -112 -21 -21 -49 -31 -49 -17 0 6 -13 -2 -29 -18 -23
-22 -28 -35 -24 -56 4 -21 2 -28 -10 -28 -10 0 -14 -6 -11 -15 7 -18 -26 -21
-44 -3 -9 9 -12 8 -12 -4 0 -9 -9 -23 -21 -31 -19 -14 -19 -15 16 -21 20 -4
38 -13 41 -21 3 -7 21 -16 40 -19 19 -4 34 -11 34 -17 0 -6 5 -7 10 -4 8 5 7
11 0 21 -17 19 75 111 94 95 10 -8 17 -7 26 4 9 10 9 15 1 15 -6 0 -11 -6 -11
-12 -1 -8 -5 -7 -13 4 -16 21 -13 114 5 135 7 8 11 31 9 50 l-3 36 77 -8 c66
-6 79 -4 96 11 17 15 24 16 39 6 11 -7 28 -12 39 -12 30 0 41 -21 32 -62 -5
-22 -5 -40 1 -46 12 -12 -27 -36 -43 -27 -5 4 -21 4 -35 1 -23 -6 -24 -9 -18
-59 7 -59 16 -72 39 -63 13 5 14 10 5 27 -15 26 3 50 22 31 16 -16 48 13 48
45 0 12 4 23 9 23 4 0 20 11 35 25 15 14 24 25 20 25 -4 0 -16 -7 -26 -17 -17
-15 -18 -14 -18 18 0 19 4 39 8 45 8 13 72 7 72 -7 0 -19 39 -8 75 21 43 34
40 33 63 21 9 -6 30 -12 45 -16 23 -5 27 -9 21 -27 -3 -12 -6 -39 -6 -60 1
-39 1 -39 -37 -37 -62 4 -77 -18 -45 -66 15 -23 15 -25 0 -25 -9 0 -16 -7 -16
-15 0 -18 -31 -20 -48 -3 -10 10 -14 8 -18 -9 -3 -12 -12 -24 -20 -27 -23 -9
-16 -25 18 -46 26 -16 29 -20 15 -26 -10 -3 -28 -4 -42 -2 -15 3 -30 -1 -37
-9 -21 -26 27 -53 94 -53 36 0 62 -5 71 -15 13 -12 15 -12 16 8 0 12 0 29 1
37 1 22 -8 92 -15 116 -4 13 0 27 10 37 9 9 14 21 10 26 -3 5 9 11 27 13 27 2
34 8 36 28 2 14 8 29 13 34 5 6 9 32 9 58 l0 48 48 -7 c55 -8 169 -7 266 2 51
5 71 4 77 -6 9 -15 -19 -39 -38 -32 -24 9 -63 -7 -63 -26 0 -10 3 -21 7 -25 4
-4 7 -19 8 -34 0 -18 6 -28 18 -30 16 -3 18 1 12 27 -5 25 -3 31 10 31 8 0 18
-6 21 -14 9 -25 31 -26 30 -3 -1 17 4 21 21 20 11 -1 24 4 27 13 4 12 1 14
-14 9 -16 -5 -20 -2 -20 14 0 12 5 21 11 21 6 0 9 6 6 14 -6 16 74 43 92 31 6
-3 11 -1 11 4 0 6 9 11 20 11 18 0 19 -3 9 -21 -8 -16 -17 -20 -39 -15 -23 4
-32 0 -45 -20 -15 -24 -15 -24 4 -12 34 21 44 -2 22 -45 -30 -59 -41 -69 -71
-62 -20 4 -29 2 -33 -9 -4 -9 -16 -15 -28 -13 -27 3 -36 -18 -12 -27 11 -4 22
-1 29 8 11 15 34 22 34 10 0 -3 -16 -25 -36 -49 -30 -38 -35 -49 -29 -76 5
-22 10 -28 18 -20 20 20 30 11 24 -23 -3 -19 -3 -44 0 -56 l6 -21 19 21 20 21
14 -26 c9 -17 10 -33 4 -49 -4 -12 -4 -29 0 -36 5 -9 4 -20 -2 -28 -9 -10 -6
-18 11 -35 22 -21 23 -22 36 -3 8 10 16 23 17 28 2 5 15 7 28 3 25 -6 69 -65
89 -118 13 -34 23 -35 15 -2 -3 14 -4 25 -1 25 4 0 16 -33 28 -72 21 -75 84
-209 133 -286 54 -87 36 -31 -38 115 -41 81 -78 161 -81 178 -6 29 -6 29 14
11 12 -11 21 -25 21 -32 0 -11 87 -213 97 -224 2 -2 7 1 11 7 5 8 15 3 32 -15
14 -14 20 -23 14 -19 -20 12 -25 -25 -7 -47 24 -28 43 -63 43 -79 0 -7 6 -19
13 -25 6 -7 19 -38 28 -69 8 -31 20 -58 25 -60 6 -2 3 26 -8 64 -63 236 -79
291 -90 318 -7 17 -13 36 -15 44 -1 8 -32 74 -68 147 -60 118 -73 138 -126
181 -79 65 -163 143 -154 143 11 0 127 -86 182 -135 116 -102 178 -240 274
-610 41 -157 42 -164 49 -390 5 -126 12 -272 16 -322 5 -65 4 -93 -4 -93 -16
0 -20 25 -20 120 0 99 -10 170 -25 170 -6 0 -7 -29 -2 -82 9 -100 7 -248 -3
-263 -4 -5 -6 -32 -5 -60 1 -27 2 -74 2 -104 1 -69 8 -63 16 14 9 85 32 204
35 180 1 -11 1 -91 0 -177 -2 -157 -2 -158 20 -158 21 0 22 3 16 54 -7 54 0
126 13 124 29 -3 38 4 33 27 -3 16 0 25 8 25 9 0 11 14 7 52 -4 32 -2 57 5 65
8 10 8 17 1 24 -16 16 -22 0 -32 -79 -17 -135 -30 -117 -30 43 0 83 -4 215 -8
295 -12 211 -5 358 18 401 5 10 23 70 40 135 17 66 37 130 44 144 7 14 20 50
29 81 16 57 109 239 149 291 117 154 157 186 157 128 0 -27 -2 -30 -14 -21
-11 10 -19 5 -40 -22 -14 -19 -26 -38 -26 -44 0 -5 -9 -18 -20 -28 -11 -10
-18 -20 -15 -23 8 -8 -16 -43 -26 -37 -5 4 -9 -1 -9 -10 0 -8 -12 -34 -27 -58
-54 -85 -81 -143 -73 -157 6 -9 14 -2 29 27 11 22 28 43 37 47 11 4 14 13 10
30 -4 18 2 33 27 60 19 20 36 34 39 31 3 -3 -2 -29 -10 -58 -26 -93 -25 -117
3 -52 37 88 67 145 75 145 4 0 10 -9 13 -20 3 -11 0 -20 -6 -20 -8 0 -7 -4 2
-9 7 -5 10 -14 7 -20 -4 -6 -3 -19 3 -28 8 -15 10 -16 15 -3 3 8 7 27 9 43 4
32 18 37 28 10 6 -13 8 -14 9 -3 0 12 3 12 14 -2 14 -19 36 -24 36 -8 0 6 10
5 25 -2 28 -13 34 -30 8 -22 -15 5 -15 3 1 -10 14 -12 22 -13 27 -5 4 7 14 9
23 6 9 -4 16 -2 16 4 0 5 -7 12 -16 16 -9 3 -14 13 -11 24 3 11 0 19 -6 19 -7
0 -3 7 7 15 18 13 15 20 -6 16 -15 -2 -8 17 8 23 16 6 16 15 0 89 -7 30 -4 32
22 16 14 -9 27 -7 60 10 40 20 42 24 42 65 0 40 -4 47 -39 73 -21 15 -57 45
-80 66 -37 33 -40 39 -27 52 8 8 22 12 30 9 10 -4 16 -1 16 7 0 23 -14 36 -51
48 -42 14 -67 39 -141 146 -31 44 -70 94 -87 110 -17 17 -36 38 -42 48 -9 16
-8 17 8 9 10 -6 31 -24 47 -41 26 -27 35 -30 63 -25 23 4 33 2 33 -6 0 -8 9
-11 29 -7 36 7 54 -9 40 -35 -7 -13 -7 -29 -1 -46 8 -24 7 -27 -12 -28 -15 -1
-31 12 -51 42 -16 23 -31 41 -33 39 -7 -6 91 -135 131 -173 21 -20 37 -30 41
-23 4 6 -2 16 -14 23 -26 16 -26 28 0 28 11 0 20 5 20 10 0 17 -29 23 -44 11
-8 -7 -17 -8 -20 -3 -7 12 4 52 15 52 5 0 9 18 9 39 0 22 3 42 8 44 4 3 36 1
71 -4 52 -8 69 -6 88 7 16 10 28 12 36 6 7 -6 26 -12 42 -14 30 -3 30 -4 30
-63 0 -33 -4 -63 -9 -67 -5 -3 -23 -4 -41 -1 -40 6 -62 -16 -45 -47 6 -12 9
-28 6 -35 -3 -8 -1 -17 5 -20 5 -4 6 -11 3 -17 -4 -6 -1 -9 7 -6 8 2 15 19 17
36 4 36 21 43 29 12 5 -20 28 -23 28 -4 1 5 6 19 13 30 6 12 9 24 5 27 -3 4 0
14 8 23 7 9 14 37 14 62 0 27 5 47 13 50 7 2 12 -5 12 -17 0 -12 4 -21 10 -21
5 0 7 7 4 15 -7 18 15 20 50 4 22 -10 30 -8 65 20 40 32 41 32 82 18 l43 -15
-1 -56 c-1 -31 -2 -60 -2 -65 -1 -6 -13 -6 -30 -1 -20 5 -35 4 -47 -4 -16 -13
-16 -27 1 -69 5 -12 2 -17 -10 -17 -9 0 -13 -5 -10 -10 10 -16 -25 -25 -46
-12 -15 9 -19 8 -24 -8 -4 -11 -13 -20 -21 -20 -8 0 -14 -7 -14 -15 0 -16 34
-38 44 -28 3 3 6 1 6 -6 0 -7 5 -9 10 -6 6 3 10 2 10 -3 0 -15 -41 -22 -62
-11 -11 6 -22 8 -26 5 -6 -7 -10 -5 58 -37 49 -24 115 -49 128 -49 2 0 -1 6
-7 14 -9 11 -8 17 4 29 19 19 19 28 1 21 -9 -3 -15 4 -18 20 -3 14 -1 26 4 26
5 0 4 9 -2 19 -13 25 -13 61 0 61 6 0 10 11 10 24 0 19 4 23 21 19 13 -4 18
-11 14 -22 -3 -9 4 -5 15 9 19 24 20 41 20 838 l0 812 -1953 -1 c-1073 0
-1946 -3 -1939 -6 20 -8 14 -30 -15 -53 -17 -13 -30 -35 -34 -56 -5 -32 -4
-34 25 -39 17 -4 65 -5 106 -3 l75 3 -3 30 c-2 17 -14 47 -28 67 -28 43 -29
49 -11 42 8 -3 25 -24 38 -47 21 -37 24 -57 27 -169 3 -89 1 -128 -7 -128 -6
0 -11 17 -11 38 l0 38 -42 0 -43 -1 3 -50 c1 -27 5 -74 8 -102 l5 -53 -103 0
-104 0 -13 93 c-7 50 -17 97 -21 102 -13 16 -112 11 -121 -6 -4 -8 -15 -52
-25 -99 -11 -51 -24 -89 -33 -94 -9 -6 -56 -9 -104 -7 -67 2 -94 -1 -112 -13
-28 -18 -31 -12 -11 23 17 30 11 49 -21 76 l-24 20 30 42 c33 45 38 63 20 63
-11 0 -10 9 12 93 10 37 10 37 62 37 92 0 127 10 133 37 5 16 0 31 -13 46 -34
38 -35 45 -6 61 25 14 -91 15 -1114 16 -904 0 -1142 -3 -1146 -12z m5391 -79
c41 -14 49 -37 15 -45 -27 -7 -53 14 -53 43 0 16 -1 16 38 2z m-4482 -69 c192
-1 238 -4 282 -19 102 -35 146 -109 140 -238 l-3 -68 -107 -3 -108 -3 6 44
c15 105 -35 157 -148 157 -62 0 -68 -2 -73 -22 -3 -13 -13 -59 -23 -103 l-18
-79 -99 3 c-55 1 -101 4 -103 5 -1 2 7 41 18 87 26 110 26 109 -15 109 -39 0
-41 6 -24 80 10 42 25 64 40 55 3 -3 109 -5 235 -5z m943 -1 c80 -12 120 -34
144 -79 23 -45 16 -108 -19 -167 -47 -81 -55 -83 -331 -83 -134 0 -243 3 -243
8 0 4 9 47 20 96 21 96 19 107 -27 98 -25 -5 -25 -5 -18 49 13 95 0 89 217 88
106 -1 221 -5 257 -10z m2041 -2 c0 -8 -6 -35 -36 -164 l-16 -73 -80 0 -80 0
5 29 c3 16 9 40 13 55 l6 26 -75 0 c-41 0 -88 3 -106 6 -36 7 -44 -6 -55 -93
l-7 -53 30 0 c22 0 30 5 35 25 6 23 11 25 62 25 56 0 56 0 50 -26 -4 -15 -10
-39 -13 -55 l-5 -29 -189 0 c-217 0 -198 -13 -170 117 l18 81 -50 4 c-28 2
-56 -1 -63 -7 -7 -5 -36 -52 -65 -102 l-52 -93 -89 0 -90 0 20 33 c52 87 92
167 85 168 -4 1 -21 2 -38 3 -33 1 -35 12 -14 88 l10 38 167 2 c339 6 792 3
792 -5z m1457 -49 c41 -17 50 -24 42 -35 -8 -9 -8 -13 -1 -13 6 0 13 4 17 10
3 5 14 2 24 -8 11 -9 31 -28 45 -41 14 -13 26 -30 26 -38 0 -9 18 -44 40 -79
22 -35 40 -75 40 -89 0 -16 6 -25 15 -25 8 0 15 5 15 11 0 5 5 7 12 3 7 -4 8
-3 4 5 -4 6 -3 18 3 25 8 10 8 28 0 66 -16 73 3 87 24 18 18 -61 22 -123 15
-285 -3 -78 -2 -82 20 -88 25 -6 30 -25 7 -25 -8 0 -15 -3 -16 -7 0 -5 -2 -17
-4 -28 -3 -19 -2 -18 15 3 10 12 21 22 24 22 3 0 6 -40 6 -88 0 -103 -8 -115
-80 -129 -40 -8 -45 -12 -52 -43 -9 -44 1 -231 14 -247 5 -7 6 -17 3 -24 -4
-6 -9 -37 -11 -68 -1 -31 -5 -85 -8 -121 -5 -75 7 -184 30 -252 l15 -48 -37
-60 c-20 -33 -41 -60 -46 -60 -5 0 -7 -9 -3 -20 7 -21 -14 -69 -39 -89 -13
-11 -16 -11 -16 3 0 9 -4 16 -10 16 -13 0 -13 -13 1 -27 8 -8 7 -17 -5 -34 -8
-12 -13 -32 -10 -44 3 -11 0 -34 -6 -50 -11 -29 -12 -29 -26 -11 -8 11 -14 15
-14 9 0 -7 5 -15 10 -18 15 -9 12 -48 -6 -74 -14 -19 -23 -22 -50 -18 -29 5
-34 3 -34 -13 0 -10 -4 -21 -9 -25 -5 -3 -12 -19 -16 -36 -7 -30 -33 -36 -27
-6 2 11 -3 14 -17 10 -30 -8 -70 40 -66 78 2 16 1 28 -3 25 -4 -2 -8 10 -9 27
-1 17 -8 34 -14 38 -6 4 -8 12 -4 19 4 7 4 15 -1 19 -17 11 -60 75 -106 156
-25 44 -61 97 -80 118 -19 20 -35 43 -35 50 -3 57 -3 98 0 132 2 22 0 42 -4
45 -5 3 -10 22 -12 42 -3 24 -14 46 -34 65 -51 47 -54 59 -47 215 l6 143 -31
65 c-17 36 -31 70 -31 77 0 12 -49 11 -69 -2 -16 -9 -39 34 -55 105 -19 80
-19 80 -1 80 8 0 15 -7 15 -16 0 -10 5 -14 15 -10 21 8 31 -22 17 -45 -14 -22
-16 -69 -3 -69 5 0 11 7 15 15 3 8 15 15 26 15 17 0 19 -4 14 -26 -5 -20 -3
-25 7 -22 9 3 15 22 16 54 1 27 2 54 2 59 1 6 12 -3 26 -20 l25 -30 -3 50 c-2
48 -15 75 -35 75 -14 0 -22 25 -22 68 0 58 51 249 73 273 15 16 18 30 14 64
-5 50 0 60 21 42 13 -10 15 -9 9 5 -3 10 -2 20 4 24 5 3 7 14 4 25 -5 13 0 21
14 27 11 4 19 10 18 13 -3 9 61 60 80 64 10 2 20 4 22 4 2 1 -2 8 -9 16 -7 9
-9 19 -5 23 4 4 10 1 12 -5 6 -18 23 -16 23 1 0 22 25 25 129 21 67 -3 111
-11 148 -27z m-5074 -70 c-5 -37 -3 -44 23 -64 l28 -23 -22 -24 c-26 -27 -27
-42 -7 -81 19 -35 12 -45 -14 -22 -11 10 -23 16 -28 13 -4 -2 -39 -1 -77 4
-41 5 -75 5 -86 -1 -15 -8 -17 -4 -12 39 4 43 2 50 -17 56 -27 8 -27 29 2 48
l22 16 -28 0 c-36 1 -82 -31 -103 -70 -12 -24 -14 -61 -12 -180 2 -134 5 -152
21 -164 18 -13 18 -14 -2 -24 -19 -11 -21 -21 -23 -109 0 -53 -5 20 -9 163 -8
223 -7 266 6 301 17 44 69 89 121 103 22 6 28 13 27 30 -3 19 1 21 30 17 17
-3 48 -7 67 -10 28 -4 59 3 97 23 0 1 -1 -18 -4 -41z m5269 -28 c3 -56 -6 -67
-16 -19 -9 44 -8 69 3 69 5 0 11 -23 13 -50z m58 29 c0 -6 -4 -7 -10 -4 -5 3
-10 11 -10 16 0 6 5 7 10 4 6 -3 10 -11 10 -16z m-3174 -141 c9 -18 14 -57 12
-120 l-1 -93 -7 96 c-5 74 -11 104 -29 132 -12 20 -27 37 -32 37 -5 0 -9 5 -9
12 0 16 49 -31 66 -64z m364 8 c0 -43 -16 -56 -22 -17 -5 32 0 51 13 51 5 0 9
-15 9 -34z m31 -171 l25 50 88 3 c48 2 86 -1 84 -5 -1 -5 -45 -82 -97 -171
l-94 -162 -126 0 -126 0 -19 -40 c-16 -33 -24 -40 -48 -40 -16 0 -31 6 -34 14
-8 22 38 85 64 86 27 0 27 -1 -2 170 -13 74 -20 139 -16 143 4 4 49 6 101 5
86 -3 94 -5 96 -23 1 -11 5 -55 8 -97 4 -43 10 -78 14 -78 4 0 17 20 29 45 12
25 17 45 12 45 -12 0 -14 153 -2 164 4 4 9 -30 12 -76 l5 -83 26 50z m-2766
65 c3 -5 -3 -10 -15 -10 -12 0 -18 5 -15 10 3 6 10 10 15 10 5 0 12 -4 15 -10z
m787 -15 c2 -3 -3 -42 -13 -88 -28 -127 -31 -121 50 -114 38 3 83 13 99 21 43
22 89 79 109 136 l18 50 103 0 104 0 -7 -27 c-11 -48 -53 -133 -85 -173 -33
-42 -113 -96 -157 -106 -16 -3 -33 -12 -38 -19 -6 -8 -32 -12 -65 -11 -30 0
-101 0 -158 -2 -99 -2 -102 -3 -90 -22 10 -15 10 -22 0 -32 -25 -25 -14 -39
26 -32 28 4 41 2 52 -11 12 -14 10 -20 -12 -42 -22 -22 -30 -24 -54 -16 -21 7
-30 17 -32 36 -3 24 -7 27 -43 27 -28 0 -39 4 -39 15 0 8 -5 15 -11 15 -6 0
-8 7 -5 15 20 51 24 48 -51 43 -64 -3 -70 -2 -65 15 3 10 -3 24 -14 31 -17 13
-17 15 -1 39 9 14 14 32 11 40 -6 17 -85 30 -99 16 -17 -17 -25 -9 -19 19 4
20 0 34 -12 46 -14 15 -15 22 -6 37 10 16 9 19 -5 20 -14 0 -12 3 5 10 18 7
22 14 17 30 -6 19 -4 20 26 14 18 -4 54 -7 80 -7 47 0 48 -1 42 -28 -4 -22 0
-31 17 -40 21 -11 21 -13 5 -30 -26 -28 -13 -67 25 -75 16 -4 34 -4 39 -1 8 5
22 57 46 174 l7 32 97 0 c54 0 100 -2 103 -5z m1051 -9 c9 -7 17 -23 17 -35 0
-15 6 -21 23 -22 21 -1 21 -1 -3 -9 -22 -6 -23 -8 -7 -15 21 -9 22 -28 1 -45
-8 -8 -14 -25 -12 -39 3 -25 6 -26 65 -26 34 0 64 2 67 5 3 3 12 41 21 85 9
44 18 88 21 98 5 15 19 17 110 17 105 0 105 0 98 -22 -15 -47 -41 -178 -36
-183 3 -3 21 -5 40 -5 32 0 34 -2 28 -26 -4 -15 -10 -39 -13 -55 l-5 -29 56 0
c62 0 58 -6 60 87 1 23 5 45 9 49 4 4 7 -38 7 -94 0 -93 -5 -114 -23 -95 -4 3
-32 7 -63 8 -31 2 -60 8 -64 14 -8 13 -543 12 -556 -1 -4 -4 -1 -14 6 -23 11
-13 8 -15 -16 -15 -44 0 -74 -11 -74 -26 0 -8 5 -14 10 -14 6 0 10 -7 10 -15
0 -8 -4 -15 -10 -15 -5 0 -10 -9 -10 -21 0 -11 -5 -17 -10 -14 -15 9 -52 -5
-47 -18 8 -23 -13 -47 -42 -47 -34 0 -44 20 -31 56 6 14 8 30 5 34 -11 17 53
70 84 70 16 0 33 5 36 10 3 6 -3 10 -14 10 -15 0 -21 6 -21 23 0 13 -5 28 -10
33 -8 8 -6 15 5 24 8 7 15 22 15 34 0 19 5 21 45 18 51 -4 49 -10 46 108 -3
80 -20 100 -90 100 l-48 0 -16 -78 c-21 -98 -22 -92 13 -92 30 0 31 -1 24 -37
-4 -21 -10 -49 -14 -63 l-6 -25 -163 -3 -162 -3 7 38 c16 84 18 88 56 91 40 3
38 0 68 155 l11 57 242 0 c185 -1 246 -4 260 -14z m1727 4 c0 -5 7 -10 16 -10
11 0 14 -6 9 -20 -8 -25 26 -40 93 -40 l47 0 1 -113 c1 -93 0 -100 -5 -42 -7
75 -10 72 -34 -40 l-12 -60 -83 -3 c-79 -3 -82 -4 -82 -27 0 -22 -2 -23 -29
-14 -17 6 -35 17 -42 25 -9 11 -51 14 -215 14 -112 0 -204 4 -204 8 0 5 5 34
11 65 l12 57 38 0 c42 0 39 -6 65 115 9 44 19 83 21 88 7 11 393 9 393 -3z
m1079 -92 c0 -42 -2 -48 -9 -30 -8 20 -3 82 6 82 2 0 4 -24 3 -52z m-2669 -56
c0 -19 -3 -15 -24 28 l-17 35 21 -24 c11 -13 20 -30 20 -39z m-1760 29 c-5
-11 -10 -42 -10 -70 0 -31 -4 -51 -11 -51 -7 0 -9 17 -5 51 6 48 21 89 32 89
2 0 0 -9 -6 -19z m2170 -10 c0 -11 -4 -23 -10 -26 -6 -4 -10 5 -10 19 0 14 5
26 10 26 6 0 10 -9 10 -19z m2257 -63 c-3 -8 -6 -5 -6 6 -1 11 2 17 5 13 3 -3
4 -12 1 -19z m-4597 -23 c0 -8 -6 -15 -14 -15 -17 0 -28 14 -19 24 12 12 33 6
33 -9z m4610 -26 c0 -11 -4 -17 -10 -14 -5 3 -10 13 -10 21 0 8 5 14 10 14 6
0 10 -9 10 -21z m-10 -49 c0 -5 -5 -10 -11 -10 -5 0 -7 5 -4 10 3 6 8 10 11
10 2 0 4 -4 4 -10z m-4443 -22 c-3 -8 -6 -5 -6 6 -1 11 2 17 5 13 3 -3 4 -12
1 -19z m140 -50 c-2 -13 -4 -3 -4 22 0 25 2 35 4 23 2 -13 2 -33 0 -45z m3389
25 c-10 -10 -19 5 -10 18 6 11 8 11 12 0 2 -7 1 -15 -2 -18z m1 -165 c-2 -29
-3 -8 -3 47 0 55 1 79 3 53 2 -26 2 -71 0 -100z m980 105 c-3 -10 -5 -4 -5 12
0 17 2 24 5 18 2 -7 2 -21 0 -30z m-3882 -8 c0 -22 -31 -33 -48 -16 -7 7 -6
15 3 26 17 21 45 15 45 -10z m1555 -11 c0 -8 -5 -12 -10 -9 -6 4 -8 11 -5 16
9 14 15 11 15 -7z m-965 -15 c10 -15 -6 -57 -23 -61 -42 -10 -66 11 -55 50 7
29 63 36 78 11z m552 -46 c-2 -16 -4 -5 -4 22 0 28 2 40 4 28 2 -13 2 -35 0
-50z m-1097 27 c0 -21 -34 -40 -71 -40 -30 0 -21 42 11 51 46 13 60 10 60 -11z
m38 -38 c2 -7 -3 -12 -12 -12 -9 0 -16 7 -16 16 0 17 22 14 28 -4z m-110 -22
c12 -11 19 -27 16 -35 -4 -10 0 -15 12 -15 11 0 27 -7 37 -15 11 -7 25 -11 32
-9 7 3 18 -4 24 -15 15 -26 14 -29 -8 -41 -25 -13 -110 27 -111 51 0 10 -12
20 -27 24 -34 8 -41 19 -35 51 5 30 30 31 60 4z m1581 -117 c1 -29 -3 -53 -9
-53 -6 0 -10 30 -9 73 1 84 17 66 18 -20z m-935 68 c9 -15 -23 -36 -36 -23 -5
5 -7 15 -4 21 9 13 33 14 40 2z m-70 -40 c9 -14 -4 -41 -19 -41 -17 0 -38 27
-30 40 8 12 42 13 49 1z m3395 -108 c-1 -43 -4 -68 -7 -55 -7 23 -3 132 4 132
2 0 4 -35 3 -77z m-3455 36 c-3 -5 -10 -7 -15 -3 -5 3 -7 10 -3 15 3 5 10 7
15 3 5 -3 7 -10 3 -15z m2413 -26 c-3 -10 -5 -4 -5 12 0 17 2 24 5 18 2 -7 2
-21 0 -30z m-1760 -5 c-3 -7 -5 -2 -5 12 0 14 2 19 5 13 2 -7 2 -19 0 -25z
m-635 -110 c-14 -14 -42 -3 -42 16 0 8 8 16 18 18 21 5 38 -20 24 -34z m148
22 c0 -5 -4 -10 -10 -10 -5 0 -10 5 -10 10 0 6 5 10 10 10 6 0 10 -4 10 -10z
m90 -4 c0 -20 -16 -29 -40 -21 -32 10 -25 35 10 35 19 0 30 -5 30 -14z m-458
-38 c-7 -7 -12 -8 -12 -2 0 6 3 14 7 17 3 4 9 5 12 2 2 -3 -1 -11 -7 -17z
m2375 -260 c-3 -8 -6 -5 -6 6 -1 11 2 17 5 13 3 -3 4 -12 1 -19z m-112 -108
c3 -5 1 -10 -4 -10 -6 0 -11 5 -11 10 0 6 2 10 4 10 3 0 8 -4 11 -10z m2339
-119 c3 -5 -1 -11 -9 -14 -9 -4 -12 -1 -8 9 6 16 10 17 17 5z m73 -53 c26 -30
26 -91 -1 -96 -14 -3 -17 0 -13 11 3 9 -1 18 -9 21 -8 3 -14 17 -14 32 0 17
-6 28 -20 31 -11 3 -17 9 -14 14 10 17 50 9 71 -13z m-1087 -23 c0 -8 -4 -15
-10 -15 -5 0 -7 7 -4 15 4 8 8 15 10 15 2 0 4 -7 4 -15z m10 -29 c0 -3 -4 -8
-10 -11 -5 -3 -10 -1 -10 4 0 6 5 11 10 11 6 0 10 -2 10 -4z m993 -79 c-3 -15
-9 -27 -14 -27 -5 0 -6 7 -3 15 4 9 1 15 -7 15 -10 0 -10 3 -1 12 7 7 12 21
13 33 l0 20 9 -21 c4 -11 6 -32 3 -47z m-714 -229 c15 -43 8 -45 -12 -3 -9 19
-13 35 -8 35 5 0 14 -14 20 -32z m327 -94 c-3 -8 -9 -21 -12 -29 -3 -8 -1 -15
5 -15 6 0 11 -11 11 -25 0 -16 -6 -25 -15 -25 -17 0 -20 -25 -5 -35 6 -4 -3
-22 -20 -44 -17 -21 -30 -44 -28 -51 2 -8 -5 -16 -16 -18 -12 -3 -16 0 -11 8
4 7 2 16 -6 20 -9 6 -10 12 -3 22 16 20 54 132 54 157 0 34 18 61 36 54 8 -3
13 -12 10 -19z"/>
<path d="M1785 3458 c-12 -40 -32 -148 -27 -152 11 -12 84 -6 112 9 59 31 74
107 27 140 -26 18 -106 20 -112 3z"/>
<path d="M5250 3539 c0 -5 5 -7 10 -4 6 3 10 8 10 11 0 2 -4 4 -10 4 -5 0 -10
-5 -10 -11z"/>
<path d="M5444 3260 c-29 -11 -38 -39 -19 -60 14 -15 13 -18 -4 -34 -15 -13
-20 -14 -24 -4 -11 33 -22 -19 -19 -95 2 -30 7 -40 22 -44 11 -3 20 -14 20
-24 0 -10 11 -26 25 -35 14 -9 25 -23 25 -30 0 -17 -5 -17 -30 -2 -16 10 -23
9 -45 -12 l-25 -24 -29 28 -28 27 -24 -20 c-23 -18 -23 -20 -7 -38 14 -15 15
-22 6 -31 -6 -6 -8 -15 -4 -19 4 -5 15 1 24 12 12 14 28 20 57 19 37 -1 40 -4
46 -34 7 -33 24 -49 68 -62 l23 -7 -22 24 c-20 21 -21 28 -11 53 7 16 11 33
10 38 -1 5 -1 20 0 34 1 20 3 22 11 10 5 -8 10 -10 10 -4 0 6 -9 21 -19 33
-11 13 -23 37 -26 54 -4 18 -13 39 -20 47 -23 28 -24 48 -4 66 23 20 26 12 3
-10 -12 -12 -12 -16 -2 -16 7 0 25 -11 38 -23 20 -19 27 -21 35 -10 8 10 18
11 55 0 45 -13 80 -12 80 2 0 42 -52 101 -88 101 -6 0 -23 5 -39 11 -22 8 -24
12 -13 19 30 19 87 11 121 -17 l32 -27 -8 25 c-4 13 -17 37 -29 53 -20 26 -29
29 -87 32 -35 1 -73 -1 -85 -6z m62 -177 c-7 -7 -46 12 -46 22 0 23 24 23 37
1 6 -12 10 -22 9 -23z m56 5 c-7 -7 -12 -8 -12 -2 0 14 12 26 19 19 2 -3 -1
-11 -7 -17z m-116 -215 c-10 -10 -19 5 -10 18 6 11 8 11 12 0 2 -7 1 -15 -2
-18z m4 -37 c0 -3 -4 -8 -10 -11 -5 -3 -10 -1 -10 4 0 6 5 11 10 11 6 0 10 -2
10 -4z"/>
<path d="M5120 3253 c-19 -3 -42 -11 -51 -19 -11 -10 -19 -12 -22 -4 -3 6 -4
5 -3 -2 2 -7 -3 -30 -10 -52 -8 -21 -14 -57 -14 -80 l1 -41 14 33 c22 51 80
102 115 102 17 0 30 -4 30 -10 0 -5 -3 -9 -7 -9 -56 9 -101 -30 -110 -96 -5
-40 -4 -47 8 -39 8 5 16 9 19 9 3 0 17 9 32 19 15 10 32 15 37 12 5 -4 18 7
27 24 10 16 21 30 25 30 3 0 18 -11 33 -25 l26 -24 -15 -57 c-10 -40 -12 -61
-4 -70 7 -8 7 -14 -1 -19 -13 -8 -13 -55 0 -75 7 -11 12 -12 20 -4 9 9 9 14 1
18 -6 4 -11 14 -11 23 0 25 54 102 73 104 31 3 35 4 43 12 6 6 -3 9 -22 6 -14
-2 -23 28 -18 57 7 37 -7 69 -46 104 -17 16 -27 35 -26 50 1 24 -2 25 -54 26
-30 1 -71 -1 -90 -3z m151 -136 c12 -22 12 -22 -10 -3 -11 11 -21 23 -21 28 0
14 19 -1 31 -25z m-131 -17 c0 -5 -4 -10 -10 -10 -5 0 -10 5 -10 10 0 6 5 10
10 10 6 0 10 -4 10 -10z"/>
<path d="M5740 3165 c0 -19 2 -35 5 -35 10 0 24 40 19 54 -11 28 -24 17 -24
-19z"/>
<path d="M5791 3136 c-6 -16 -10 -37 -8 -45 5 -25 29 26 24 52 -3 20 -4 20
-16 -7z"/>
<path d="M5196 3081 c-4 -5 3 -7 14 -4 23 6 26 13 6 13 -8 0 -17 -4 -20 -9z"/>
<path d="M5801 2854 c0 -11 3 -14 6 -6 3 7 2 16 -1 19 -3 4 -6 -2 -5 -13z"/>
<path d="M5280 2810 c0 -5 -20 -15 -45 -21 -29 -7 -45 -17 -45 -27 0 -13 3
-12 19 2 11 10 25 15 31 11 7 -4 15 -3 19 2 3 5 17 17 31 26 19 13 21 17 7 17
-9 0 -17 -4 -17 -10z"/>
<path d="M5308 2750 c-32 -9 -88 -42 -88 -52 0 -17 24 -18 80 -4 52 13 81 14
170 4 66 -7 64 13 -2 34 -65 21 -125 27 -160 18z"/>
<path d="M5165 2740 c-3 -5 -1 -10 4 -10 6 0 11 5 11 10 0 6 -2 10 -4 10 -3 0
-8 -4 -11 -10z"/>
<path d="M5003 2687 c-9 -19 -7 -33 7 -64 10 -22 23 -44 29 -47 20 -13 44 -68
32 -75 -21 -14 12 -141 37 -141 5 0 14 -16 22 -35 9 -22 20 -35 32 -35 12 0
15 -5 11 -16 -4 -12 -2 -15 8 -12 17 6 49 -29 49 -54 0 -10 7 -18 15 -18 8 0
15 5 15 10 0 6 9 19 20 30 11 11 15 20 9 20 -6 0 -9 7 -5 15 3 10 -1 15 -11
15 -16 0 -16 1 -1 16 12 12 23 14 49 7 26 -7 56 -4 122 12 48 12 90 18 93 13
3 -5 17 1 31 12 14 11 29 18 32 15 4 -2 18 17 30 43 13 26 37 70 55 97 43 65
52 89 30 81 -8 -3 -20 -6 -25 -6 -5 0 -9 -6 -9 -13 0 -7 -19 -26 -41 -41 -39
-25 -43 -26 -60 -10 -17 16 -19 16 -19 1 0 -11 -5 -14 -15 -11 -11 5 -13 2 -8
-12 5 -13 3 -15 -7 -9 -8 5 -18 2 -26 -10 -8 -11 -19 -15 -30 -11 -9 3 -22 2
-28 -3 -24 -19 -81 -19 -120 1 -21 11 -47 17 -57 15 -12 -3 -19 0 -19 9 0 8
-9 14 -20 14 -11 0 -20 6 -20 13 0 7 -15 19 -34 27 -19 7 -37 22 -40 33 -4 17
-8 18 -20 8 -12 -10 -20 -9 -40 4 -32 21 -66 87 -59 114 7 28 -1 27 -14 -2z"/>
<path d="M5333 2664 c-18 -8 -16 -27 2 -20 9 3 15 0 15 -9 0 -8 5 -15 11 -15
5 0 8 4 4 9 -3 5 7 11 22 13 16 2 28 8 28 13 0 11 -62 17 -82 9z"/>
<path d="M5560 2562 c0 -12 19 -26 26 -19 2 2 -2 10 -11 17 -9 8 -15 8 -15 2z"/>
<path d="M5355 2450 c3 -5 10 -10 16 -10 5 0 9 5 9 10 0 6 -7 10 -16 10 -8 0
-12 -4 -9 -10z"/>
<path d="M5677 1923 c-4 -3 -7 -12 -7 -20 0 -11 4 -11 20 -3 11 6 18 15 15 21
-7 11 -19 12 -28 2z"/>
<path d="M5633 1848 c-6 -7 -16 -31 -23 -53 -7 -22 -19 -51 -26 -65 -25 -46
-64 -162 -63 -189 0 -17 7 -4 19 35 18 63 55 156 92 232 21 41 21 65 1 40z"/>
<path d="M5511 1494 c0 -11 3 -14 6 -6 3 7 2 16 -1 19 -3 4 -6 -2 -5 -13z"/>
<path d="M3585 3178 c-7 -20 -35 -148 -35 -159 0 -5 16 -9 35 -9 34 0 49 20
25 35 -15 9 -12 61 5 75 8 7 15 25 15 41 0 22 -5 29 -20 29 -11 0 -23 -6 -25
-12z"/>
<path d="M0 1958 c0 -670 1 -706 18 -721 29 -26 32 -20 11 24 -11 22 -18 48
-16 57 3 12 7 9 16 -13 42 -98 41 -93 25 -106 -12 -10 -20 -10 -35 -1 -19 12
-19 5 -19 -304 l0 -317 233 7 c273 9 650 24 690 29 15 2 36 4 47 5 11 1 20 7
20 13 0 6 -7 9 -15 5 -8 -3 -15 -1 -15 4 0 6 5 10 10 10 6 0 10 5 10 10 0 6
-7 10 -15 10 -8 0 -16 3 -16 8 -1 4 -3 16 -4 27 -1 12 -8 31 -14 44 -14 25 -5
44 9 21 5 -8 12 -11 15 -8 4 4 -2 17 -14 29 -12 13 -21 31 -21 42 0 14 -5 17
-17 13 -12 -4 -9 2 8 17 14 12 28 31 32 41 4 9 12 14 17 11 8 -5 8 -11 1 -19
-6 -7 -8 -16 -4 -19 3 -4 -3 -7 -15 -7 -27 0 -27 -5 -2 -32 l20 -22 0 22 c0
13 7 34 16 47 10 15 12 25 5 25 -6 0 -11 7 -11 15 0 8 5 15 10 15 6 0 10 9 10
20 0 19 -7 20 -147 20 -80 0 -143 3 -140 7 4 4 29 8 55 9 241 14 294 22 298
46 1 10 -2 20 -7 24 -5 3 -9 0 -9 -6 0 -11 -56 -8 -68 4 -3 3 -12 0 -20 -7
-11 -9 -16 -9 -19 -1 -2 7 -13 10 -23 7 -11 -3 -20 -1 -20 5 0 6 17 14 38 17
20 3 59 12 85 20 37 10 55 11 73 3 20 -9 27 -7 50 15 29 29 22 38 -8 10 -15
-13 -22 -14 -41 -4 -13 7 -27 11 -33 10 -5 -1 -13 0 -19 1 -5 1 -27 1 -48 0
-35 -1 -38 1 -33 18 7 20 7 20 -44 1 -42 -16 -50 -17 -50 -4 0 8 -5 15 -11 15
-6 0 -9 7 -5 15 3 9 0 15 -9 15 -8 0 -15 -6 -15 -12 0 -9 -3 -10 -8 -2 -4 6
-38 12 -77 13 -38 1 -106 5 -150 7 -44 3 -88 5 -98 5 -13 0 -16 6 -11 25 4 15
2 24 -6 24 -6 0 -8 5 -5 10 9 14 -24 25 -37 12 -6 -6 -17 -8 -25 -5 -8 3 -19
0 -23 -7 -4 -7 -13 -9 -19 -5 -8 5 -9 11 -2 19 17 21 1 26 -25 9 -14 -9 -24
-11 -24 -4 0 5 -7 8 -15 5 -9 -4 -15 -1 -15 7 0 10 -3 10 -12 1 -7 -7 -20 -12
-30 -12 -10 0 -18 -5 -18 -11 0 -19 -18 1 -22 26 -5 25 -4 25 45 21 32 -3 57
0 66 7 12 10 14 9 8 -5 -7 -21 -4 -22 23 -8 11 6 29 15 40 20 17 8 20 7 20 -9
0 -18 2 -19 28 -5 33 17 72 18 72 2 0 -10 2 -10 8 -1 10 16 62 28 62 14 0 -6
5 -11 10 -11 6 0 10 6 10 13 0 7 14 21 30 31 17 9 28 21 25 26 -8 13 13 50 27
50 6 0 17 -8 25 -17 8 -10 12 -12 8 -5 -4 7 1 12 13 12 10 0 21 3 24 6 8 7
-32 49 -54 57 -10 3 -20 19 -24 34 -11 55 -48 123 -66 123 -9 0 -20 5 -23 10
-4 6 -15 8 -26 5 -11 -4 -19 -2 -19 4 0 6 13 11 29 11 38 0 87 -41 112 -96 27
-56 39 -66 63 -49 15 12 19 26 18 76 -1 57 1 61 20 56 20 -6 154 16 165 27 9
9 6 57 -4 67 -6 6 -45 16 -87 24 -107 18 -112 31 -11 25 41 -2 85 16 85 34 0
8 7 22 16 30 8 9 11 16 5 16 -6 0 -21 -11 -33 -25 -25 -29 -38 -32 -38 -9 0 8
4 12 10 9 6 -3 7 1 4 9 -3 9 -1 16 5 16 6 0 11 10 11 23 0 16 3 18 9 8 5 -7
14 -10 20 -7 6 4 11 2 11 -5 0 -10 3 -10 12 -1 15 15 -7 43 -28 35 -22 -8 -17
15 6 27 14 7 20 7 20 0 0 -5 7 -10 16 -10 21 0 15 37 -20 138 -25 71 -31 87
-76 187 -35 77 -40 95 -30 95 17 0 81 -115 130 -235 4 -11 15 -36 24 -55 l17
-35 -6 33 c-6 31 7 46 19 20 3 -7 3 1 -1 17 -9 45 -23 67 -38 61 -8 -3 -17 -1
-20 4 -4 6 -3 10 2 10 4 0 16 14 25 31 10 17 22 28 27 25 13 -8 19 -54 9 -64
-5 -5 4 -9 23 -9 17 0 35 -6 39 -14 5 -7 11 -11 15 -8 3 3 -15 43 -40 88 -25
45 -45 83 -45 86 0 4 -118 205 -125 213 -2 2 -12 -3 -24 -10 -17 -11 -25 -10
-43 1 -12 7 -48 16 -80 18 -32 3 -58 10 -58 14 0 10 28 12 100 9 70 -3 43 8
-71 29 -100 18 -174 23 -546 37 l-173 6 0 -704z m673 622 c-4 -4 -28 -5 -53
-2 -42 5 -43 6 -15 12 35 7 80 1 68 -10z m-601 -169 c15 -5 34 -30 51 -64 31
-63 33 -77 13 -77 -14 0 -39 49 -34 67 2 5 -12 22 -29 37 -18 15 -33 32 -33
37 0 11 3 11 32 0z m918 -122 c0 -6 -4 -7 -10 -4 -5 3 -10 11 -10 16 0 6 5 7
10 4 6 -3 10 -11 10 -16z m-835 -49 c-3 -5 -13 -10 -21 -10 -8 0 -14 5 -14 10
0 6 9 10 21 10 11 0 17 -4 14 -10z m697 -97 c-1 -7 6 -21 18 -33 11 -11 20
-27 20 -35 0 -11 -12 -4 -36 19 -27 26 -34 40 -29 55 4 13 0 27 -9 37 -9 8
-16 20 -16 25 0 6 12 -4 28 -22 15 -18 26 -39 24 -46z m-743 -2 c13 -10 22
-25 20 -34 -3 -13 -11 -8 -37 18 -34 37 -24 47 17 16z m851 -114 c0 -2 -10
-12 -22 -23 l-23 -19 19 23 c18 21 26 27 26 19z m-64 -54 c-7 -7 -26 7 -26 19
0 6 6 6 15 -2 9 -7 13 -15 11 -17z m-379 -289 c-3 -3 -12 -4 -19 -1 -8 3 -5 6
6 6 11 1 17 -2 13 -5z m-337 -368 c0 -11 -19 -15 -25 -6 -3 5 1 10 9 10 9 0
16 -2 16 -4z m250 -95 c0 -5 -11 -11 -25 -13 -28 -6 -35 8 -7 15 28 8 32 7 32
-2z m-110 -5 c0 -3 -4 -8 -10 -11 -5 -3 -10 -1 -10 4 0 6 5 11 10 11 6 0 10
-2 10 -4z m342 -60 c4 -13 -9 -14 -295 -16 -310 -3 -307 -3 -307 10 0 6 56 10
146 9 81 0 148 1 149 3 8 8 305 2 307 -6z m48 -6 c-19 -13 -30 -13 -30 0 0 6
10 10 23 10 18 0 19 -2 7 -10z m132 -85 c0 -5 -5 -11 -11 -13 -6 -2 -11 4 -11
13 0 9 5 15 11 13 6 -2 11 -8 11 -13z m38 -1 c0 -8 -4 -12 -10 -9 -5 3 -10 10
-10 16 0 5 5 9 10 9 6 0 10 -7 10 -16z m37 -360 c-3 -3 -12 -4 -19 -1 -8 3 -5
6 6 6 11 1 17 -2 13 -5z"/>
<path d="M3005 2300 c-3 -5 -1 -10 4 -10 6 0 11 5 11 10 0 6 -2 10 -4 10 -3 0
-8 -4 -11 -10z"/>
<path d="M3205 2269 c6 -16 4 -20 -6 -14 -11 6 -11 5 -2 -5 6 -7 16 -9 21 -6
12 7 4 46 -10 46 -5 0 -6 -10 -3 -21z"/>
<path d="M6080 2279 c0 -5 5 -7 10 -4 6 3 10 8 10 11 0 2 -4 4 -10 4 -5 0 -10
-5 -10 -11z"/>
<path d="M6126 2281 c-3 -5 5 -11 18 -13 17 -4 23 -1 19 9 -6 15 -29 18 -37 4z"/>
<path d="M3146 2265 c-7 -18 10 -65 23 -65 5 0 12 6 14 13 4 9 8 8 16 -3 7
-10 11 -11 11 -3 0 7 -9 17 -20 23 -15 8 -19 17 -15 31 8 23 -20 27 -29 4z"/>
<path d="M3460 2270 c0 -5 5 -10 10 -10 6 0 10 5 10 10 0 6 -4 10 -10 10 -5 0
-10 -4 -10 -10z"/>
<path d="M2172 2258 c6 -18 28 -21 28 -4 0 9 -7 16 -16 16 -9 0 -14 -5 -12
-12z"/>
<path d="M3800 2240 c0 -20 5 -30 15 -30 8 0 15 5 15 10 0 6 -5 10 -11 10 -6
0 -8 9 -4 20 4 11 2 20 -4 20 -6 0 -11 -13 -11 -30z"/>
<path d="M3865 2260 c-4 -6 -11 -7 -17 -4 -7 4 -8 2 -4 -4 9 -14 46 -16 46 -3
0 15 -18 23 -25 11z"/>
<path d="M1720 2258 c0 -3 44 -13 98 -23 253 -46 267 -50 267 -65 0 -12 19
-16 90 -21 89 -5 277 -36 496 -82 63 -13 126 -24 140 -25 14 -1 73 -13 130
-27 57 -14 120 -25 140 -25 20 0 72 -11 115 -25 43 -14 88 -25 100 -25 12 0
41 -7 64 -15 23 -8 54 -15 69 -15 14 0 50 -11 80 -25 29 -14 72 -28 95 -31 22
-4 75 -17 116 -30 72 -22 174 -47 270 -64 83 -16 125 -28 187 -54 79 -33 101
-33 133 2 14 16 50 46 80 68 47 33 100 74 181 139 9 7 27 16 40 20 13 4 43 20
66 35 22 16 51 31 64 35 20 7 21 8 4 17 -14 8 -15 12 -4 19 11 7 10 9 -4 9
-10 0 -17 6 -16 13 4 30 -1 39 -18 32 -10 -4 -29 -7 -41 -6 -14 0 -32 -9 -42
-21 -14 -18 -21 -20 -32 -11 -11 10 -18 8 -31 -7 -22 -26 -22 -30 8 -64 26
-31 31 -46 15 -46 -5 0 -10 5 -10 10 0 12 -30 13 -47 2 -7 -4 -14 -18 -16 -30
-5 -31 -43 -72 -67 -72 -11 0 -20 -4 -20 -10 0 -5 -6 -10 -14 -10 -8 0 -16 -7
-20 -15 -3 -8 -15 -15 -26 -15 -15 0 -20 -7 -20 -27 0 -14 -3 -24 -6 -21 -3 4
-14 -2 -25 -13 -16 -16 -21 -17 -46 -5 -15 8 -48 19 -73 26 -25 6 -61 15 -80
21 -19 6 -64 16 -100 24 -98 21 -141 32 -185 49 -22 8 -50 15 -62 16 -30 0
-146 30 -159 41 -6 5 -42 16 -80 24 -38 9 -87 21 -109 26 -22 6 -53 13 -70 16
-16 3 -36 10 -42 15 -14 11 -194 48 -233 48 -14 0 -34 6 -45 14 -11 7 -41 16
-67 20 -26 4 -50 11 -53 15 -6 10 -60 19 -160 26 -38 3 -106 10 -150 16 -44 5
-100 12 -125 15 -42 4 -103 15 -255 49 -33 7 -67 13 -75 13 -23 1 -188 21
-255 32 -104 16 -165 23 -165 18z m2957 -264 c-3 -3 -12 -4 -19 -1 -8 3 -5 6
6 6 11 1 17 -2 13 -5z m-124 -68 c3 -8 -2 -16 -14 -19 -11 -3 -19 0 -19 7 0
26 24 35 33 12z"/>
<path d="M3505 2250 c3 -5 14 -10 23 -10 15 0 15 2 2 10 -20 13 -33 13 -25 0z"/>
<path d="M6076 2246 c3 -8 12 -12 21 -9 12 5 12 7 1 14 -20 13 -28 11 -22 -5z"/>
<path d="M6435 2250 c-3 -5 1 -10 9 -10 9 0 16 5 16 10 0 6 -4 10 -9 10 -6 0
-13 -4 -16 -10z"/>
<path d="M2225 2241 c-6 -11 9 -23 19 -14 9 9 7 23 -3 23 -6 0 -12 -4 -16 -9z"/>
<path d="M3453 2226 c10 -8 27 -12 38 -9 25 7 22 9 -21 16 -31 6 -33 5 -17 -7z"/>
<path d="M4120 2236 c0 -2 7 -7 16 -10 8 -3 12 -2 9 4 -6 10 -25 14 -25 6z"/>
<path d="M4160 2220 c0 -5 7 -10 16 -10 8 0 12 5 9 10 -3 6 -10 10 -16 10 -5
0 -9 -4 -9 -10z"/>
<path d="M6390 2215 c-7 -9 -8 -15 -2 -15 5 0 12 7 16 15 3 8 4 15 2 15 -2 0
-9 -7 -16 -15z"/>
<path d="M6440 2220 c0 -5 5 -10 11 -10 5 0 7 5 4 10 -3 6 -8 10 -11 10 -2 0
-4 -4 -4 -10z"/>
<path d="M2470 2210 c-12 -7 -12 -12 -3 -21 10 -10 14 -9 19 5 8 22 2 27 -16
16z"/>
<path d="M3843 2206 c-30 -14 -29 -26 1 -26 15 0 26 7 29 20 6 22 2 23 -30 6z"/>
<path d="M6110 2208 l-25 -10 22 -10 c23 -11 53 -5 53 11 0 15 -23 19 -50 9z"/>
<path d="M3500 2201 c0 -11 26 -22 34 -14 12 12 5 23 -14 23 -11 0 -20 -4 -20
-9z"/>
<path d="M4431 2194 c0 -11 3 -14 6 -6 3 7 2 16 -1 19 -3 4 -6 -2 -5 -13z"/>
<path d="M6422 2188 c5 -15 48 -18 48 -3 0 6 -11 11 -26 13 -18 3 -25 0 -22
-10z"/>
<path d="M3066 2174 c-22 -21 -20 -27 4 -14 11 6 20 15 20 20 0 14 -6 12 -24
-6z"/>
<path d="M3180 2175 c0 -9 9 -15 25 -15 16 0 25 6 25 15 0 9 -9 15 -25 15 -16
0 -25 -6 -25 -15z"/>
<path d="M4158 2182 c-29 -6 -20 -28 12 -30 17 -1 30 2 30 7 0 14 -24 28 -42
23z"/>
<path d="M4481 2177 c-18 -18 -12 -27 19 -27 19 0 30 5 30 14 0 18 -35 27 -49
13z"/>
<path d="M3338 2157 c-5 -30 12 -79 25 -74 6 2 14 18 18 35 5 26 2 34 -17 47
-21 14 -23 13 -26 -8z"/>
<path d="M3785 2167 c-20 -22 -26 -37 -17 -37 5 0 17 11 26 25 17 25 10 34 -9
12z"/>
<path d="M2698 2163 c6 -2 18 -2 25 0 6 3 1 5 -13 5 -14 0 -19 -2 -12 -5z"/>
<path d="M3402 2143 c0 -18 4 -33 9 -33 5 0 9 6 9 14 0 8 6 17 13 19 7 4 6 6
-5 6 -9 1 -18 7 -21 14 -2 6 -4 -3 -5 -20z"/>
<path d="M1110 2135 c1 -26 2 -28 11 -12 8 14 8 22 0 30 -8 8 -11 3 -11 -18z"/>
<path d="M6374 2151 c4 -5 0 -11 -6 -14 -7 -2 -10 -8 -6 -12 4 -4 14 -1 22 8
15 14 12 27 -6 27 -5 0 -7 -4 -4 -9z"/>
<path d="M3150 2140 c8 -5 20 -10 25 -10 6 0 3 5 -5 10 -8 5 -19 10 -25 10 -5
0 -3 -5 5 -10z"/>
<path d="M4113 2143 c-15 -5 -17 -23 -4 -23 5 0 11 7 15 15 3 8 4 15 3 14 -1
0 -8 -3 -14 -6z"/>
<path d="M4825 2140 c3 -5 8 -10 11 -10 2 0 4 5 4 10 0 6 -5 10 -11 10 -5 0
-7 -4 -4 -10z"/>
<path d="M4421 2116 c-7 -8 -8 -17 -3 -20 6 -3 13 1 16 10 9 23 2 28 -13 10z"/>
<path d="M4080 2100 c0 -5 5 -10 10 -10 6 0 10 5 10 10 0 6 -4 10 -10 10 -5 0
-10 -4 -10 -10z"/>
<path d="M3290 2069 c0 -5 5 -7 10 -4 6 3 10 8 10 11 0 2 -4 4 -10 4 -5 0 -10
-5 -10 -11z"/>
<path d="M3393 2073 c-24 -9 -14 -33 13 -33 18 0 25 5 22 17 -3 18 -16 24 -35
16z"/>
<path d="M4050 2070 c0 -5 5 -10 10 -10 6 0 10 5 10 10 0 6 -4 10 -10 10 -5 0
-10 -4 -10 -10z"/>
<path d="M4355 2070 c3 -5 8 -10 11 -10 2 0 4 5 4 10 0 6 -5 10 -11 10 -5 0
-7 -4 -4 -10z"/>
<path d="M4397 2064 c6 -16 19 -18 27 -5 3 5 -3 11 -13 14 -14 3 -18 1 -14 -9z"/>
<path d="M6165 2060 c3 -5 11 -10 16 -10 6 0 7 5 4 10 -3 6 -11 10 -16 10 -6
0 -7 -4 -4 -10z"/>
<path d="M6330 2055 c-7 -8 -18 -14 -24 -14 -6 1 -19 -1 -28 -5 -9 -4 -25 -3
-37 3 -11 6 -26 11 -33 11 -7 -1 3 -9 22 -20 43 -24 90 -26 90 -5 0 10 10 15
31 15 20 0 29 4 27 13 -7 18 -33 20 -48 2z"/>
<path d="M4022 2033 c-9 -16 -6 -18 26 -18 19 0 37 6 39 13 3 6 -2 12 -10 12
-9 0 -22 3 -30 6 -9 3 -20 -2 -25 -13z"/>
<path d="M6617 2044 c-13 -13 -7 -24 14 -24 11 0 19 5 17 12 -5 14 -22 21 -31
12z"/>
<path d="M3737 2034 c-10 -11 3 -24 24 -24 10 0 19 7 19 15 0 15 -31 21 -43 9z"/>
<path d="M4377 2014 c-15 -15 -6 -24 24 -24 20 0 29 4 27 13 -5 14 -40 21 -51
11z"/>
<path d="M3897 1997 c-6 -17 3 -67 12 -67 4 0 12 5 19 12 8 8 15 8 27 -2 13
-11 15 -10 10 3 -4 8 -2 18 4 22 14 8 14 25 1 25 -5 0 -10 -7 -10 -15 0 -8 -8
-15 -17 -15 -13 0 -14 3 -6 11 9 9 8 15 -2 25 -17 18 -31 18 -38 1z"/>
<path d="M4330 1930 c0 -5 5 -10 10 -10 6 0 10 5 10 10 0 6 -4 10 -10 10 -5 0
-10 -4 -10 -10z"/>
<path d="M6161 1734 c0 -11 3 -14 6 -6 3 7 2 16 -1 19 -3 4 -6 -2 -5 -13z"/>
<path d="M6186 1732 c-4 -7 -5 -23 -2 -35 3 -12 1 -29 -4 -37 -8 -12 -10 -12
-15 2 -9 22 -42 29 -55 12 -7 -7 -9 -23 -4 -36 4 -13 8 -32 9 -43 2 -11 8 -19
14 -17 6 1 11 -7 11 -18 0 -11 6 -29 12 -40 10 -16 9 -25 -6 -51 -18 -31 -18
-31 3 -20 11 7 21 16 21 22 0 6 4 8 9 4 5 -3 12 -1 16 5 9 14 23 13 22 -2 0
-7 1 -23 1 -36 l2 -23 27 26 c33 30 43 31 43 5 0 -11 7 -20 15 -20 9 0 12 6 9
15 -8 20 13 19 24 -2 9 -14 10 -14 16 5 8 25 26 30 26 7 0 -8 4 -15 9 -15 10
0 8 57 -3 67 -3 3 -6 1 -6 -5 0 -7 -4 -12 -10 -12 -5 0 -10 10 -10 23 0 33
-13 48 -30 37 -10 -7 -11 -10 -2 -10 6 0 12 -7 12 -17 0 -15 -1 -15 -18 0 -25
23 -32 21 -32 -8 0 -14 -4 -25 -9 -25 -18 0 -42 32 -37 49 3 9 8 28 12 44 3
15 10 27 15 27 5 0 9 5 9 10 0 6 -12 8 -27 5 -16 -3 -22 -2 -15 1 19 9 14 24
-8 24 -12 0 -20 6 -19 13 1 6 -1 19 -4 27 -3 8 -7 24 -9 35 -3 15 -6 17 -12 7z
m154 -253 c0 -18 -18 -9 -23 12 -4 16 -3 18 9 8 8 -6 14 -15 14 -20z"/>
<path d="M4856 1655 c4 -8 10 -12 15 -9 11 6 2 24 -11 24 -5 0 -7 -7 -4 -15z"/>
<path d="M6656 1655 c-4 -11 -16 -54 -26 -95 -24 -97 -37 -130 -51 -130 -6 0
-9 7 -6 15 4 8 2 17 -3 20 -6 4 -10 -2 -11 -12 -1 -13 -3 -11 -9 7 -8 25 -8
25 -9 -5 l-2 -30 -14 25 c-7 14 -10 29 -5 33 10 11 1 47 -12 47 -6 0 -8 -7 -4
-15 3 -8 2 -15 -2 -15 -11 0 -12 -39 -1 -45 5 -4 9 -19 9 -35 0 -16 4 -31 9
-34 10 -6 21 -66 12 -66 -3 0 -7 -19 -8 -41 -3 -41 -2 -42 17 -24 19 17 20 17
20 1 0 -10 -7 -24 -15 -32 -8 -9 -15 -21 -15 -27 0 -7 4 -6 10 3 6 9 10 10 10
3 0 -6 -5 -15 -10 -18 -6 -4 -8 -15 -5 -25 4 -13 -2 -26 -19 -41 -24 -21 -24
-23 -10 -50 14 -28 14 -29 -11 -19 -16 6 -25 6 -25 0 0 -6 4 -10 9 -10 5 0 8
-27 8 -59 -1 -32 -6 -57 -11 -54 -4 3 -5 -4 -2 -15 8 -23 -12 -62 -30 -62 -6
0 -17 -7 -25 -16 -10 -12 -10 -17 0 -23 14 -9 11 -58 -2 -53 -5 2 -15 -5 -23
-15 -8 -11 -13 -13 -14 -5 0 17 -20 15 -20 -3 0 -8 -4 -15 -10 -15 -5 0 -10
12 -10 26 0 21 4 25 20 21 23 -6 27 11 5 19 -8 4 -15 13 -15 22 0 34 -23 -7
-27 -50 -2 -24 -7 -50 -10 -58 -12 -31 -11 -38 8 -33 10 3 19 9 19 14 0 5 5 9
11 9 6 0 17 7 25 15 18 17 44 20 44 4 0 -5 -4 -8 -9 -5 -5 3 -14 -1 -21 -9
-10 -12 -7 -15 15 -21 26 -6 30 -29 5 -29 -7 0 -15 -6 -18 -14 -3 -9 0 -11 9
-5 12 6 12 5 1 -8 -8 -10 -20 -14 -29 -11 -12 5 -15 2 -10 -10 4 -11 1 -17 -8
-17 -17 0 -20 -26 -5 -33 6 -3 5 -4 -2 -3 -15 3 -28 49 -22 81 8 44 -10 27
-40 -37 -21 -46 -27 -72 -23 -100 3 -21 1 -38 -5 -38 -5 0 -8 -26 -7 -58 2
-31 -1 -66 -6 -76 -6 -14 -5 -17 4 -12 8 6 7 -2 -3 -22 -9 -17 -20 -34 -26
-37 -6 -4 -7 -11 -4 -17 4 -7 2 -8 -4 -4 -7 4 -29 2 -49 -4 -33 -9 -40 -8 -54
10 -25 29 -31 12 -10 -29 10 -20 23 -47 29 -61 10 -24 11 -24 11 10 1 20 6 41
13 48 15 15 48 16 48 1 0 -5 5 -7 10 -4 6 3 10 -1 10 -9 0 -9 5 -16 10 -16 6
0 10 -4 10 -10 0 -5 -7 -7 -15 -4 -15 6 -15 1 1 -43 4 -10 8 -25 9 -33 1 -8 5
-30 9 -47 l9 -33 210 0 211 0 -32 30 c-18 16 -37 30 -43 30 -14 0 -11 16 6 30
13 10 19 9 35 -5 24 -22 39 -13 19 11 -11 13 -11 18 -1 21 6 3 12 12 12 20 0
12 -3 13 -14 4 -11 -9 -15 -8 -20 5 -4 11 0 18 14 21 19 5 19 16 20 454 0 394
-2 449 -15 449 -8 0 -15 4 -15 10 0 5 6 7 14 4 12 -5 14 10 13 88 -1 51 -5 98
-8 103 -6 11 -4 86 6 251 4 56 5 112 3 125 -3 23 -4 23 -12 4z m-96 -249 c0
-3 -4 -8 -10 -11 -5 -3 -10 -1 -10 4 0 6 5 11 10 11 6 0 10 -2 10 -4z m16 -43
c-10 -10 -19 5 -10 18 6 11 8 11 12 0 2 -7 1 -15 -2 -18z m-24 -75 c-8 -8 -9
-4 -5 13 4 13 8 18 11 10 2 -7 -1 -18 -6 -23z m98 -238 c0 -5 -4 -10 -10 -10
-5 0 -10 5 -10 10 0 6 5 10 10 10 6 0 10 -4 10 -10z m-114 -359 c-3 -5 -9 -33
-12 -63 -3 -29 -10 -59 -16 -65 -7 -9 -7 -22 0 -40 6 -16 13 -55 16 -88 3 -33
10 -78 17 -100 l11 -39 22 26 c11 15 34 47 50 73 15 25 30 44 32 42 3 -2 -12
-39 -32 -82 -23 -46 -38 -93 -38 -118 -1 -34 -5 -42 -26 -47 -14 -4 -47 -29
-75 -55 -27 -26 -41 -44 -31 -41 41 14 108 26 116 21 4 -2 10 4 13 15 3 12 14
20 26 20 31 0 26 -18 -16 -55 -34 -30 -40 -32 -54 -19 -15 13 -21 13 -52 -5
-20 -11 -44 -17 -56 -14 -15 4 -21 1 -21 -11 0 -9 -5 -16 -11 -16 -17 0 -2 62
18 77 9 7 42 37 73 67 l58 55 -9 46 c-5 25 -14 55 -21 68 -10 17 -26 99 -40
203 -2 19 45 154 54 154 5 0 7 -4 4 -9z m-90 -180 c-20 -37 -20 -41 -1 -41 8
0 15 5 15 10 0 6 4 10 9 10 5 0 7 -8 4 -19 -3 -10 -1 -21 4 -24 6 -4 8 -19 5
-35 -3 -24 -8 -29 -23 -25 -12 4 -26 -2 -35 -13 -14 -17 -15 -13 -9 50 5 63
30 135 41 123 3 -3 -2 -19 -10 -36z m-86 -91 c0 -5 -5 -10 -11 -10 -5 0 -7 5
-4 10 3 6 8 10 11 10 2 0 4 -4 4 -10z m-74 -88 c-17 -16 -18 -16 -5 5 7 12 15
20 18 17 3 -2 -3 -12 -13 -22z"/>
<path d="M6290 1630 c0 -5 5 -10 10 -10 6 0 10 5 10 10 0 6 -4 10 -10 10 -5 0
-10 -4 -10 -10z"/>
<path d="M4841 1614 c0 -11 3 -14 6 -6 3 7 2 16 -1 19 -3 4 -6 -2 -5 -13z"/>
<path d="M4206 1598 c-11 -44 -6 -92 26 -209 26 -101 29 -123 19 -145 -12 -28
-22 -27 -26 3 -12 120 -35 166 -35 72 0 -49 16 -261 24 -326 3 -18 1 -33 -3
-33 -5 0 -11 19 -14 43 -3 23 -13 83 -22 132 -11 61 -14 109 -10 150 4 33 8
69 9 80 0 11 5 25 9 32 5 8 -1 11 -20 9 -36 -4 -45 -34 -46 -161 0 -102 11
-149 91 -385 10 -30 27 -88 38 -128 17 -69 17 -74 2 -83 -16 -9 -15 -12 3 -44
12 -19 27 -35 34 -35 7 0 18 -14 24 -32 10 -28 9 -35 -9 -52 -18 -18 -20 -19
-20 -3 0 9 -4 17 -10 17 -5 0 -9 -5 -7 -12 3 -18 30 -48 42 -48 5 0 3 5 -5 10
-13 9 -13 11 0 20 12 7 16 4 18 -15 2 -14 7 -23 12 -20 4 3 11 -2 14 -11 4
-11 2 -15 -8 -11 -8 3 -16 1 -19 -6 -2 -8 -9 -6 -21 6 -22 21 -44 23 -26 2 18
-22 8 -27 -25 -15 -60 23 -36 -11 59 -85 19 -14 25 -26 21 -42 -3 -12 -1 -25
5 -28 15 -9 12 -25 -6 -25 -20 0 -10 -33 24 -78 29 -38 11 -45 -28 -9 -25 22
-72 47 -90 47 -6 0 -10 -7 -10 -15 0 -9 6 -12 16 -8 14 5 16 2 10 -23 -6 -26
-5 -27 7 -12 14 18 27 14 27 -8 0 -7 18 -32 40 -55 22 -23 40 -46 40 -51 0 -4
31 -8 69 -8 l69 0 6 35 c9 45 26 45 26 0 l0 -35 275 0 c195 1 273 5 269 12 -4
6 1 17 10 24 15 10 15 15 4 33 -7 12 -18 21 -24 21 -7 0 -15 7 -18 16 -8 21
-8 35 2 31 4 -1 7 3 7 8 0 6 -3 9 -7 8 -5 -2 -8 6 -8 17 0 11 -5 20 -11 20 -6
0 -8 7 -4 18 5 13 3 14 -5 6 -13 -13 -50 -7 -50 8 0 6 6 8 14 5 8 -3 17 1 20
9 4 11 0 13 -21 8 -18 -5 -24 -4 -19 5 4 6 -3 15 -17 20 -24 9 -45 51 -25 51
6 0 8 7 5 15 -4 8 -2 17 4 21 7 4 7 10 0 18 -7 9 -7 16 1 24 9 9 8 12 -5 12
-10 0 -27 -16 -38 -35 -24 -40 -34 -43 -49 -15 -9 16 -8 20 5 20 9 0 13 5 10
10 -3 6 -1 10 4 10 6 0 11 4 11 9 0 4 -11 6 -25 3 -17 -3 -27 1 -31 12 -3 9
-9 14 -14 11 -4 -2 -12 7 -19 21 -7 16 -17 24 -25 21 -8 -3 -17 1 -20 9 -3 9
-9 13 -13 11 -10 -6 -10 49 0 59 4 4 7 16 7 27 0 15 5 18 25 15 14 -3 25 -1
25 3 0 5 -12 9 -26 9 -17 0 -28 -6 -31 -20 -3 -11 -9 -20 -14 -20 -5 0 -5 10
0 23 5 12 9 26 9 30 0 12 12 22 12 11 0 -20 36 -12 37 8 2 16 -1 17 -13 7 -13
-10 -17 -10 -25 2 -6 10 -9 11 -9 1 0 -7 -5 -10 -11 -6 -10 6 -7 48 6 94 3 8
-5 21 -16 28 -19 12 -20 11 -15 -6 4 -11 0 -24 -9 -32 -9 -7 -15 -8 -15 -2 0
6 6 13 13 15 7 4 6 6 -5 6 -9 1 -19 -7 -21 -16 -3 -12 -5 -10 -6 7 -1 21 -3
22 -12 10 -8 -11 -9 -4 -6 27 3 24 2 45 -3 48 -4 3 -11 25 -14 50 -5 28 -11
43 -18 39 -14 -9 -29 17 -22 39 3 10 0 24 -6 32 -6 8 -9 18 -6 24 3 5 1 11 -6
13 -8 3 -12 25 -11 67 1 35 -2 59 -7 56 -5 -3 -16 7 -25 22 l-16 28 5 -33 c3
-17 1 -44 -4 -58 -7 -16 -7 -23 0 -19 6 3 10 2 10 -3 0 -6 -7 -13 -16 -16 -12
-5 -14 -10 -5 -20 6 -7 8 -16 4 -19 -3 -4 -1 -7 6 -7 8 0 11 -6 7 -16 -4 -9
-1 -23 5 -30 8 -10 7 -19 -4 -34 l-15 -21 -14 20 c-8 12 -18 18 -21 14 -4 -3
-7 1 -7 10 0 10 -4 17 -10 17 -5 0 -10 -9 -10 -20 0 -25 -15 -26 -24 -2 -3 9
-9 22 -12 29 -3 7 2 10 15 6 12 -3 21 -1 21 5 0 13 -22 21 -53 18 -24 -3 -26
1 -51 108 -14 61 -35 179 -46 261 -30 211 -48 271 -64 213z m14 -668 c0 -11
-2 -20 -4 -20 -2 0 -6 9 -9 20 -3 11 -1 20 4 20 5 0 9 -9 9 -20z m365 -69 c3
-5 1 -12 -5 -16 -5 -3 -10 1 -10 9 0 18 6 21 15 7z m-295 -269 c0 -15 -2 -15
-10 -2 -13 20 -13 33 0 25 6 -3 10 -14 10 -23z m660 -546 c0 -3 -4 -8 -10 -11
-5 -3 -10 -1 -10 4 0 6 5 11 10 11 6 0 10 -2 10 -4z"/>
<path d="M6432 1568 c2 -6 10 -14 16 -16 7 -2 10 2 6 12 -7 18 -28 22 -22 4z"/>
<path d="M6568 1510 c-7 -24 -3 -38 8 -28 3 4 4 17 2 30 l-3 23 -7 -25z"/>
<path d="M6426 1449 c-3 -17 -3 -36 1 -42 4 -6 5 -31 4 -56 -3 -65 17 -41 25
31 5 42 3 61 -8 77 -15 21 -15 21 -22 -10z"/>
<path d="M5761 1424 c0 -11 3 -14 6 -6 3 7 2 16 -1 19 -3 4 -6 -2 -5 -13z"/>
<path d="M6100 1421 c0 -10 50 -25 58 -16 8 7 1 11 -30 19 -16 3 -28 2 -28 -3z"/>
<path d="M6170 1381 c0 -5 7 -15 16 -22 9 -7 20 -22 24 -34 8 -19 9 -19 9 3 1
31 -16 62 -34 62 -8 0 -15 -4 -15 -9z"/>
<path d="M4316 1305 c-3 -9 1 -26 9 -38 15 -21 15 -21 9 13 -8 43 -10 45 -18
25z"/>
<path d="M6010 1290 c0 -5 5 -10 10 -10 6 0 10 5 10 10 0 6 -4 10 -10 10 -5 0
-10 -4 -10 -10z"/>
<path d="M6053 1288 c2 -7 0 -22 -5 -33 -7 -14 -4 -13 11 5 19 24 19 40 0 40
-6 0 -9 -6 -6 -12z"/>
<path d="M506 1245 c-9 -25 -9 -25 25 -25 17 0 37 6 45 14 19 20 18 25 -6 23
-11 -1 -20 -7 -20 -14 0 -7 -4 -13 -10 -13 -5 0 -9 5 -7 11 4 18 -20 21 -27 4z"/>
<path d="M4480 1230 c0 -16 5 -30 10 -30 6 0 10 14 10 30 0 17 -4 30 -10 30
-5 0 -10 -13 -10 -30z"/>
<path d="M6237 1233 c-4 -3 -7 -11 -7 -17 0 -6 5 -5 12 2 6 6 9 14 7 17 -3 3
-9 2 -12 -2z"/>
<path d="M6100 1210 c0 -5 -7 -10 -15 -10 -8 0 -15 -7 -15 -15 0 -11 6 -12 23
-6 23 8 37 41 18 41 -6 0 -11 -4 -11 -10z"/>
<path d="M6410 1179 c-6 -23 -9 -43 -6 -46 9 -10 26 8 26 28 0 11 5 29 10 40
8 15 7 19 -4 19 -9 0 -20 -16 -26 -41z"/>
<path d="M927 1193 c-4 -3 -7 -11 -7 -17 0 -6 5 -5 12 2 6 6 9 14 7 17 -3 3
-9 2 -12 -2z"/>
<path d="M870 1180 c0 -5 5 -10 11 -10 5 0 7 5 4 10 -3 6 -8 10 -11 10 -2 0
-4 -4 -4 -10z"/>
<path d="M5940 1161 c0 -5 5 -13 10 -16 6 -3 10 -2 10 4 0 5 -4 13 -10 16 -5
3 -10 2 -10 -4z"/>
<path d="M6117 1150 c-3 -13 -10 -18 -21 -14 -19 7 -20 3 -4 -31 6 -14 16 -25
22 -26 6 0 0 -5 -14 -11 -14 -6 -28 -10 -32 -10 -5 1 -8 -8 -8 -20 0 -18 2
-20 10 -8 5 8 12 11 16 7 11 -10 -16 -37 -38 -37 -10 0 -16 5 -13 10 3 6 0 10
-9 10 -24 0 -24 -23 1 -50 32 -34 38 -58 22 -87 -11 -20 -11 -26 1 -33 13 -9
7 -14 -12 -11 -4 0 -5 -5 -2 -12 2 -7 -8 -17 -26 -24 -21 -8 -30 -18 -30 -33
0 -17 -4 -21 -20 -17 -11 3 -22 2 -25 -3 -2 -4 -16 -5 -30 -2 -33 6 -33 -16 0
-24 49 -12 156 65 173 126 3 14 7 46 7 73 0 50 4 54 37 36 26 -14 37 -3 13 15
-27 20 -13 70 18 62 21 -5 21 -4 -3 14 -19 15 -22 22 -13 31 7 7 9 18 4 28 -5
9 -7 24 -6 33 4 25 -12 32 -18 8z"/>
<path d="M4340 1151 c0 -5 5 -13 10 -16 6 -3 10 -2 10 4 0 5 -4 13 -10 16 -5
3 -10 2 -10 -4z"/>
<path d="M6236 1132 l-19 -27 24 22 c12 12 21 24 18 27 -2 2 -13 -8 -23 -22z"/>
<path d="M5960 1109 c0 -6 7 -17 15 -25 16 -16 19 -7 9 20 -7 18 -24 22 -24 5z"/>
<path d="M6370 1085 c-1 -5 -3 -36 -4 -67 -2 -42 1 -58 11 -58 7 0 14 -13 15
-30 2 -52 3 -55 16 -69 19 -20 28 -4 15 29 -9 25 -9 32 5 40 16 9 16 9 0 10
-24 0 -51 53 -35 69 8 8 8 11 -1 11 -9 0 -8 9 4 31 14 28 14 31 1 26 -9 -3
-18 -1 -21 6 -2 7 -5 8 -6 2z"/>
<path d="M4357 1063 c-12 -12 -7 -22 8 -17 8 4 15 10 15 15 0 11 -14 12 -23 2z"/>
<path d="M6015 1059 c-11 -17 1 -21 15 -4 8 9 8 15 2 15 -6 0 -14 -5 -17 -11z"/>
<path d="M6245 1060 c-3 -5 -2 -10 4 -10 5 0 13 5 16 10 3 6 2 10 -4 10 -5 0
-13 -4 -16 -10z"/>
<path d="M1105 1050 c-3 -5 -1 -10 4 -10 6 0 11 5 11 10 0 6 -2 10 -4 10 -3 0
-8 -4 -11 -10z"/>
<path d="M5570 1030 c0 -5 5 -10 10 -10 6 0 10 5 10 10 0 6 -4 10 -10 10 -5 0
-10 -4 -10 -10z"/>
<path d="M4052 982 c-5 -15 -17 -54 -27 -87 -10 -33 -21 -67 -25 -75 -5 -10
-1 -24 10 -38 23 -28 33 -28 24 0 -6 20 -5 21 9 6 9 -8 19 -27 23 -42 3 -14
10 -26 16 -26 5 0 6 5 2 11 -3 6 -1 15 6 19 20 12 10 193 -11 206 -6 3 -7 14
-4 24 9 30 -12 32 -23 2z"/>
<path d="M1013 973 c-19 -7 -16 -43 3 -43 9 0 12 5 8 12 -5 8 -2 9 10 5 14 -6
15 -3 6 13 -6 11 -12 20 -13 19 -1 0 -8 -3 -14 -6z"/>
<path d="M6190 960 c-8 -5 -10 -10 -5 -10 6 0 17 5 25 10 8 5 11 10 5 10 -5 0
-17 -5 -25 -10z"/>
<path d="M5391 943 c0 -10 4 -27 9 -38 7 -16 9 -13 9 18 1 20 -3 37 -9 37 -5
0 -10 -8 -9 -17z"/>
<path d="M5720 885 c-17 -21 -11 -24 28 -13 18 5 30 13 27 18 -9 15 -41 12
-55 -5z"/>
<path d="M5408 865 c-10 -15 -8 -194 2 -200 10 -6 17 103 10 165 -3 25 -8 40
-12 35z"/>
<path d="M5780 860 c0 -5 5 -10 10 -10 6 0 10 5 10 10 0 6 -4 10 -10 10 -5 0
-10 -4 -10 -10z"/>
<path d="M6340 850 c0 -5 5 -10 10 -10 6 0 10 5 10 10 0 6 -4 10 -10 10 -5 0
-10 -4 -10 -10z"/>
<path d="M5800 831 c0 -5 7 -11 15 -15 8 -3 15 -12 15 -20 0 -16 30 -36 52
-36 7 1 -2 13 -19 29 -18 15 -33 33 -33 39 0 7 -7 12 -15 12 -8 0 -15 -4 -15
-9z"/>
<path d="M977 814 c-4 -4 -7 -14 -7 -23 0 -11 3 -12 11 -4 6 6 10 16 7 23 -2
6 -7 8 -11 4z"/>
<path d="M4716 785 c4 -8 8 -15 10 -15 2 0 4 7 4 15 0 8 -4 15 -10 15 -5 0 -7
-7 -4 -15z"/>
<path d="M4221 718 c0 -7 4 -22 9 -33 7 -17 9 -15 9 13 1 17 -3 32 -9 32 -5 0
-10 -6 -9 -12z"/>
<path d="M3926 663 c-6 -14 -5 -15 5 -6 7 7 10 15 7 18 -3 3 -9 -2 -12 -12z"/>
<path d="M6350 660 c0 -5 5 -10 10 -10 6 0 10 5 10 10 0 6 -4 10 -10 10 -5 0
-10 -4 -10 -10z"/>
<path d="M3945 629 c-10 -25 19 -77 81 -148 61 -69 155 -153 163 -145 3 3 -12
19 -33 36 -67 55 -120 113 -138 148 -44 89 -67 123 -73 109z"/>
<path d="M4750 569 c0 -5 5 -7 10 -4 6 3 10 8 10 11 0 2 -4 4 -10 4 -5 0 -10
-5 -10 -11z"/>
<path d="M717 554 c-2 -2 -543 -14 -644 -14 l-73 0 0 -110 0 -110 258 0 c141
0 375 3 520 7 225 5 262 8 257 21 -3 8 0 21 6 28 14 18 2 94 -17 101 -8 3 -22
-1 -32 -8 -15 -12 -16 -12 -4 2 7 9 10 23 7 31 -3 8 1 21 10 28 40 33 -7 42
-50 8 -26 -20 -27 -20 -21 -2 6 18 0 19 -104 20 -61 0 -111 -1 -113 -2z m308
-156 c-10 -31 -21 -42 -34 -34 -16 10 -13 26 4 26 8 0 15 7 15 15 0 8 5 15 11
15 6 0 8 -9 4 -22z m-657 -8 c16 -5 -50 -8 -163 -8 -104 0 -177 3 -160 7 43
10 291 11 323 1z"/>
<path d="M4218 548 c-3 -7 3 -21 12 -31 16 -17 17 -16 16 9 -1 29 -20 44 -28
22z"/>
<path d="M1010 510 c0 -5 5 -10 10 -10 6 0 10 5 10 10 0 6 -4 10 -10 10 -5 0
-10 -4 -10 -10z"/>
<path d="M1055 511 c-3 -5 -1 -12 4 -15 5 -3 11 1 15 9 6 16 -9 21 -19 6z"/>
<path d="M5532 480 c0 -14 2 -19 5 -12 2 6 2 18 0 25 -3 6 -5 1 -5 -13z"/>
<path d="M1075 390 c-16 -16 -26 -30 -22 -30 14 0 62 36 65 48 4 20 -13 14
-43 -18z"/>
<path d="M5326 374 c-9 -24 -2 -26 12 -4 7 11 8 20 3 20 -5 0 -12 -7 -15 -16z"/>
<path d="M3871 363 c1 -5 0 -10 -1 -13 -5 -12 -6 -80 -1 -80 3 0 12 9 18 20
13 20 7 80 -8 80 -5 0 -8 -3 -8 -7z"/>
<path d="M1080 350 c0 -5 5 -10 10 -10 6 0 10 5 10 10 0 6 -4 10 -10 10 -5 0
-10 -4 -10 -10z"/>
<path d="M1260 348 c0 -4 7 -8 15 -8 8 0 15 4 15 8 0 5 -7 9 -15 9 -8 0 -15
-4 -15 -9z"/>
<path d="M4937 299 c7 -7 15 -10 18 -7 3 3 -2 9 -12 12 -14 6 -15 5 -6 -5z"/>
<path d="M73 283 l-73 -4 0 -139 0 -140 649 0 c510 0 650 3 654 13 4 9 6 9 6
0 1 -7 13 -13 27 -13 14 0 23 4 19 10 -3 5 3 10 14 10 13 0 21 7 21 16 0 14
-8 16 -46 10 -29 -4 -52 -2 -60 5 -11 9 -15 7 -20 -5 -7 -19 -30 -21 -37 -3
-4 9 -7 9 -15 -1 -7 -10 -11 -10 -21 2 -14 16 -91 18 -91 3 0 -5 -6 -5 -12 1
-8 6 -99 10 -231 9 -120 0 -222 4 -227 9 -5 5 39 9 108 9 64 0 171 3 237 7 66
4 151 8 188 8 56 1 68 4 63 15 -3 9 1 15 9 15 8 0 12 -6 9 -13 -3 -8 3 -13 16
-13 11 0 20 3 20 6 -1 13 -17 28 -35 31 -12 3 -21 14 -23 27 -5 31 -20 28 -24
-5 -4 -37 -51 -45 -68 -13 -7 13 -17 19 -27 16 -12 -5 -14 -1 -9 19 5 18 2 25
-9 25 -8 0 -15 5 -15 10 0 18 38 -8 45 -30 3 -11 10 -20 15 -20 14 0 19 27 7
39 -9 9 -3 19 23 41 19 17 38 30 43 30 4 0 7 5 7 10 0 20 -25 9 -62 -27 -41
-40 -54 -40 -39 0 6 15 7 28 2 31 -4 3 -39 5 -78 5 -53 0 -73 -4 -77 -15 -3
-8 -10 -14 -17 -14 -6 0 -9 7 -5 15 5 13 -42 15 -392 13 -218 -1 -430 -4 -469
-5z m1027 -9 c0 -11 -29 -34 -43 -34 -9 0 -18 -6 -20 -12 -3 -7 -6 -3 -6 10
-1 15 5 22 18 22 11 0 23 5 26 10 7 11 25 14 25 4z m-44 -121 c-10 -10 -19 5
-10 18 6 11 8 11 12 0 2 -7 1 -15 -2 -18z m69 -41 c-3 -3 -11 0 -18 7 -9 10
-8 11 6 5 10 -3 15 -9 12 -12z m70 -92 c3 -6 -1 -10 -9 -10 -8 0 -18 5 -21 10
-3 6 1 10 9 10 8 0 18 -4 21 -10z"/>
<path d="M4010 259 c0 -5 5 -7 10 -4 6 3 10 8 10 11 0 2 -4 4 -10 4 -5 0 -10
-5 -10 -11z"/>
<path d="M5201 238 c-34 -36 -39 -51 -16 -42 8 4 15 9 15 14 0 4 9 17 19 29
14 16 21 18 24 9 4 -9 6 -9 6 -1 2 26 -19 22 -48 -9z"/>
<path d="M1175 220 c-3 -11 -4 -24 -1 -29 3 -5 -1 -14 -9 -21 -16 -14 -20 -40
-6 -40 8 0 23 32 36 77 7 27 -11 40 -20 13z"/>
<path d="M1226 214 c-8 -21 -8 -21 8 -27 19 -8 27 15 11 30 -10 10 -14 9 -19
-3z"/>
<path d="M5280 211 c0 -5 5 -13 10 -16 6 -3 10 -2 10 4 0 5 -4 13 -10 16 -5 3
-10 2 -10 -4z"/>
<path d="M3803 143 c9 -2 23 -2 30 0 6 3 -1 5 -18 5 -16 0 -22 -2 -12 -5z"/>
<path d="M1430 110 c0 -5 5 -10 10 -10 6 0 10 5 10 10 0 6 -4 10 -10 10 -5 0
-10 -4 -10 -10z"/>
<path d="M3130 90 c0 -5 5 -10 10 -10 6 0 10 5 10 10 0 6 -4 10 -10 10 -5 0
-10 -4 -10 -10z"/>
<path d="M6152 60 c0 -14 2 -19 5 -12 2 6 2 18 0 25 -3 6 -5 1 -5 -13z"/>
<path d="M5402 39 c2 -18 8 -34 14 -36 7 -2 9 8 6 27 -6 42 -24 50 -20 9z"/>
<path d="M3870 52 c0 -10 41 -35 47 -28 11 11 -7 36 -27 36 -11 0 -20 -3 -20
-8z"/>
<path d="M4206 51 c-13 -5 -16 -10 -9 -14 7 -4 14 -3 18 3 10 17 48 12 41 -5
-5 -15 5 -20 17 -8 10 9 -13 33 -32 32 -9 0 -25 -4 -35 -8z"/>
<path d="M3415 30 c-3 -5 1 -10 10 -10 9 0 13 5 10 10 -3 6 -8 10 -10 10 -2 0
-7 -4 -10 -10z"/>
<path d="M4310 24 c0 -15 -2 -16 -9 -5 -6 9 -11 10 -15 2 -9 -14 -46 -15 -46
-1 0 6 -5 10 -11 10 -8 0 -8 -5 1 -15 8 -10 30 -15 61 -15 51 0 60 8 34 30
-12 10 -15 9 -15 -6z"/>
<path d="M5371 24 c0 -11 3 -14 6 -6 3 7 2 16 -1 19 -3 4 -6 -2 -5 -13z"/>
<path d="M3940 15 c0 -8 7 -15 15 -15 8 0 15 7 15 15 0 8 -7 15 -15 15 -8 0
-15 -7 -15 -15z"/>
<path d="M3335 10 c-3 -5 -1 -10 4 -10 6 0 11 5 11 10 0 6 -2 10 -4 10 -3 0
-8 -4 -11 -10z"/>
<path d="M5270 10 c0 -5 5 -10 11 -10 5 0 7 5 4 10 -3 6 -8 10 -11 10 -2 0 -4
-4 -4 -10z"/>
<path d="M1438 3 c6 -2 18 -2 25 0 6 3 1 5 -13 5 -14 0 -19 -2 -12 -5z"/>
</g>
</svg>
