<?xml version="1.0" standalone="no"?>
<!DOCTYPE svg PUBLIC "-//W3C//DTD SVG 20010904//EN"
 "http://www.w3.org/TR/2001/REC-SVG-20010904/DTD/svg10.dtd">
<svg version="1.0" xmlns="http://www.w3.org/2000/svg"
 width="900.000000pt" height="720.000000pt" viewBox="0 0 900.000000 720.000000"
 preserveAspectRatio="xMidYMid meet">

<g transform="translate(0.000000,720.000000) scale(0.100000,-0.100000)"
fill="#000000" stroke="none">
<path d="M4339 7076 c-149 -134 -1276 -1131 -2699 -2390 -509 -450 -931 -824
-938 -830 -9 -9 30 -60 184 -234 108 -122 200 -222 204 -222 4 0 93 75 196
168 104 92 601 532 1104 977 503 446 1169 1035 1479 1310 310 275 578 512 596
527 l33 28 63 -58 c35 -32 399 -355 809 -717 410 -363 842 -745 960 -850 307
-272 1042 -923 1324 -1172 132 -117 243 -213 247 -213 4 0 95 100 203 222 157
177 194 224 184 234 -7 6 -272 240 -588 520 -631 558 -2759 2442 -3018 2673
-91 80 -173 145 -185 147 -16 1 -61 -33 -158 -120z"/>
<path d="M1820 6003 c0 -681 1 -715 18 -701 9 8 225 203 480 432 l462 418 0
284 0 284 -480 0 -480 0 0 -717z"/>
<path d="M4264 5702 c-121 -108 -591 -525 -1045 -927 -453 -401 -953 -844
-1112 -984 l-287 -256 2 -1710 c3 -1601 4 -1712 20 -1742 10 -17 32 -42 50
-55 l33 -23 862 -3 863 -2 2 769 c3 760 3 770 24 797 11 15 33 37 48 48 27 21
38 21 757 24 809 3 772 5 825 -64 l29 -37 3 -769 2 -768 863 2 862 3 33 23
c18 13 40 38 50 55 16 30 17 141 20 1743 l2 1712 -197 174 c-109 96 -360 318
-558 494 -198 176 -436 387 -530 470 -289 255 -960 849 -1173 1039 -112 99
-209 181 -215 182 -7 1 -111 -87 -233 -195z"/>
</g>
</svg>
