<?xml version="1.0" standalone="no"?>
<!DOCTYPE svg PUBLIC "-//W3C//DTD SVG 20010904//EN"
 "http://www.w3.org/TR/2001/REC-SVG-20010904/DTD/svg10.dtd">
<svg version="1.0" xmlns="http://www.w3.org/2000/svg"
 width="512.000000pt" height="512.000000pt" viewBox="0 0 512.000000 512.000000"
 preserveAspectRatio="xMidYMid meet">

<g transform="translate(0.000000,512.000000) scale(0.100000,-0.100000)"
fill="#000000" stroke="none">
<path d="M2411 5110 c-203 -28 -385 -123 -547 -285 -100 -100 -168 -201 -219
-327 -70 -172 -68 -142 -68 -1148 0 -978 0 -964 55 -1122 76 -221 292 -459
508 -560 149 -70 270 -92 459 -85 197 8 287 32 447 122 67 38 114 75 195 155
168 167 239 292 284 505 16 71 18 167 19 892 0 446 -2 867 -5 935 -14 257
-103 456 -288 638 -191 188 -395 277 -656 285 -66 2 -149 0 -184 -5z"/>
<path d="M922 3142 c-36 -11 -91 -60 -112 -102 -19 -37 -20 -59 -20 -332 0
-306 9 -408 49 -581 105 -446 433 -874 856 -1114 183 -104 371 -166 628 -208
l37 -6 0 -204 0 -204 -429 -3 -429 -3 -39 -31 c-112 -90 -109 -239 5 -319 l44
-30 1048 0 1048 0 44 30 c51 36 88 103 88 160 -1 75 -57 159 -123 184 -18 7
-174 11 -443 11 l-414 0 0 204 c0 232 -11 207 95 221 68 9 225 49 310 79 524
182 974 673 1110 1210 46 181 56 305 53 628 l-3 296 -31 39 c-87 109 -230 109
-318 0 l-31 -39 -6 -311 c-9 -417 -27 -519 -131 -746 -116 -250 -368 -510
-622 -640 -164 -84 -309 -125 -512 -142 -451 -38 -862 131 -1160 479 -178 208
-262 387 -316 672 -5 30 -13 197 -16 372 l-7 316 -31 39 c-57 71 -139 98 -222
75z"/>
</g>
</svg>
