<?xml version="1.0" standalone="no"?>
<!DOCTYPE svg PUBLIC "-//W3C//DTD SVG 20010904//EN"
 "http://www.w3.org/TR/2001/REC-SVG-20010904/DTD/svg10.dtd">
<svg version="1.0" xmlns="http://www.w3.org/2000/svg"
 width="360.000000pt" height="360.000000pt" viewBox="0 0 360.000000 360.000000"
 preserveAspectRatio="xMidYMid meet">

<g transform="translate(0.000000,360.000000) scale(0.100000,-0.100000)"
fill="#000000" stroke="none">
<path d="M1714 3109 c-136 -16 -257 -74 -366 -177 -84 -80 -131 -150 -170
-255 -26 -69 -32 -100 -35 -197 -6 -138 9 -215 64 -328 45 -92 175 -230 263
-280 170 -95 377 -113 556 -48 203 74 364 248 420 456 24 88 24 252 0 340 -88
323 -396 529 -732 489z"/>
<path d="M1675 1704 c-309 -46 -525 -151 -725 -353 -209 -209 -332 -476 -347
-749 l-6 -102 1207 0 1206 0 0 36 c0 20 -7 83 -16 141 -73 495 -443 893 -934
1004 -83 19 -319 33 -385 23z"/>
</g>
</svg>
